# xmcd
#
# Track frame offsets:
#	150
#	14631
#	29115
#	41384
#	56446
#	74957
#	87243
#	101434
#	115890
#	127939
#	139843
#	155908
#	171035
#	185592
#	201633
#	220069
#	233010
#	248882
#
# Disc length: 3693 seconds
#
# Revision: 3
# Processed by: cddbd v1.5.1PL0 Copyright (c) Steve Scherf et al.
# Submitted via: audiograbber 1.83.01
#
DISCID=0f0e6b12
DTITLE=Dagmar The Lady of Country - American Style Lady´s Best
DYEAR=1900
DGENRE=Country
TTITLE0=Jolene
TTITLE1=He wakes me with a kiss
TTITLE2=Cryin´ over you
TTITLE3=When you leave
TTITLE4=Two shades of blue
TTITLE5=Hasta la fiesta
TTITLE6=I won´t cry my heart out over you
TTITLE7=Nothing stays the same
TTITLE8=Now or never
TTITLE9=Sometimes
TTITLE10=Leavin´ me lonely
TTITLE11=Face the morning sun
TTITLE12=Down in Mexico
TTITLE13=So much more than a man
TTITLE14=Amazing Grace
TTITLE15=A man should never gamble
TTITLE16=He wakes me with a kiss (Dance-Version)
TTITLE17=Jolene (Dance-Version)
EXTD=
EXTT0=
EXTT1=
EXTT2=
EXTT3=
EXTT4=
EXTT5=
EXTT6=
EXTT7=
EXTT8=
EXTT9=
EXTT10=
EXTT11=
EXTT12=
EXTT13=
EXTT14=
EXTT15=
EXTT16=
EXTT17=
PLAYORDER=
